<?xml version="1.0" standalone="no"?>
<!DOCTYPE svg PUBLIC "-//W3C//DTD SVG 20010904//EN"
 "http://www.w3.org/TR/2001/REC-SVG-20010904/DTD/svg10.dtd">
<svg version="1.0" xmlns="http://www.w3.org/2000/svg"
 width="512.000000pt" height="512.000000pt" viewBox="0 0 512.000000 512.000000"
 preserveAspectRatio="xMidYMid meet">
<metadata>
Created by potrace 1.14, written by Peter Selinger 2001-2017
</metadata>
<g transform="translate(0.000000,512.000000) scale(0.100000,-0.100000)"
fill="#000000" stroke="none">
<path d="M1637 4604 c-1 -1 -65 -5 -142 -9 -77 -3 -153 -8 -170 -10 -16 -2
-55 -6 -85 -10 -119 -13 -239 -31 -335 -50 -61 -12 -263 -84 -364 -130 -179
-80 -282 -164 -366 -300 -110 -176 -177 -434 -170 -655 4 -129 7 -147 37 -240
63 -195 177 -349 403 -547 39 -33 93 -80 120 -104 28 -24 139 -118 248 -208
108 -90 197 -165 197 -167 0 -2 -29 -43 -65 -91 -123 -164 -176 -305 -180
-477 -4 -176 42 -328 197 -646 84 -173 94 -189 166 -261 130 -129 273 -181
507 -181 125 0 422 11 465 17 14 2 56 6 93 10 37 3 77 8 89 10 11 3 46 7 77
11 31 3 65 8 76 11 11 2 54 10 95 18 436 79 881 256 1245 493 108 71 400 289
585 437 355 285 670 728 744 1047 33 141 0 410 -74 600 -114 298 -307 525
-547 647 -68 34 -188 76 -243 85 -19 3 -46 9 -60 13 -14 4 -167 7 -342 8
l-316 0 -42 56 c-28 38 -80 85 -159 143 -196 143 -340 222 -616 337 -43 18
-125 42 -235 69 -142 35 -187 42 -320 55 -103 10 -505 25 -513 19z m503 -168
c40 -6 113 -18 179 -31 230 -45 495 -150 718 -286 103 -62 268 -185 298 -221
25 -30 26 -33 9 -45 -9 -7 -37 -20 -60 -29 l-43 -16 -38 36 c-62 60 -192 142
-324 205 -146 69 -238 103 -374 138 -100 25 -288 42 -270 24 6 -5 80 -30 165
-56 326 -99 568 -201 718 -302 l84 -56 -99 -48 c-54 -26 -187 -91 -296 -144
l-199 -95 -86 34 c-183 72 -319 108 -655 176 -131 26 -240 50 -243 53 -3 2 34
85 81 182 47 98 84 180 82 182 -2 1 -23 -16 -47 -39 -58 -58 -128 -168 -161
-253 -24 -61 -31 -70 -53 -71 -15 -1 -33 4 -42 11 -14 10 -5 33 75 188 83 160
96 197 72 197 -4 0 -29 -35 -56 -77 -50 -82 -60 -98 -145 -230 -48 -75 -71
-96 -83 -75 -3 4 20 70 49 146 32 81 51 143 46 148 -12 12 -24 -6 -132 -210
-28 -52 -41 -68 -65 -74 -16 -4 -34 -3 -39 2 -5 5 18 78 58 180 36 94 66 175
66 180 0 6 -6 10 -13 10 -7 0 -51 -77 -97 -172 -47 -94 -91 -177 -98 -185 -14
-14 -72 -18 -72 -5 0 4 21 68 45 142 49 148 52 160 31 160 -8 0 -32 -41 -56
-97 -93 -214 -97 -221 -130 -218 -8 1 -23 3 -32 3 -14 2 -9 25 37 165 l54 162
-30 -35 c-17 -19 -52 -80 -78 -135 -31 -66 -60 -111 -85 -132 -20 -18 -41 -33
-45 -33 -5 0 2 35 16 78 25 77 73 230 98 310 19 62 0 69 -88 31 -184 -78 -284
-193 -332 -379 -46 -177 -4 -339 135 -524 143 -191 359 -378 718 -618 281
-188 510 -300 832 -407 327 -109 593 -154 915 -155 153 -1 271 6 332 18 11 3
43 8 70 12 175 25 531 195 644 308 88 88 146 219 135 309 -10 77 -76 190 -127
218 -19 9 -19 6 -16 -63 3 -52 10 -83 25 -108 30 -48 26 -86 -12 -126 -88 -92
-170 -173 -173 -170 -2 2 12 43 31 91 l35 87 -45 -37 c-25 -21 -46 -36 -47
-34 -76 142 -89 174 -84 210 3 25 1 37 -5 33 -5 -4 -28 -6 -50 -6 -32 1 -53
11 -109 53 -78 60 -79 58 31 101 110 43 238 71 391 84 l76 6 26 -34 c57 -75
81 -155 91 -313 4 -49 9 -116 12 -148 6 -64 19 -46 -127 -182 -222 -207 -556
-421 -891 -568 l-58 -26 42 57 c23 31 54 73 70 93 31 40 35 59 15 59 -8 0 -95
-83 -195 -185 -100 -102 -190 -186 -199 -186 -28 -2 -47 2 -57 11 -9 9 7 31
115 150 75 83 109 125 109 134 0 26 -51 -15 -177 -139 -80 -80 -153 -146 -162
-146 -32 -2 -56 3 -78 17 l-23 14 36 51 c20 27 35 52 33 54 -2 2 -26 -12 -54
-31 -74 -51 -121 -74 -152 -74 -56 0 -53 13 18 90 38 41 74 83 80 94 18 30
-77 -26 -139 -83 -63 -59 -76 -63 -130 -42 l-41 16 39 45 c42 49 43 75 2 38
-15 -13 -29 -25 -32 -28 -3 -3 -17 -15 -32 -26 l-27 -21 -178 52 c-466 137
-773 285 -1034 496 -64 52 -398 332 -469 394 -164 142 -300 305 -349 420 -70
163 -78 334 -27 545 64 261 97 371 121 409 68 102 327 223 589 275 161 32 185
35 366 42 85 3 157 8 159 10 6 5 641 -4 691 -10z m-1320 -290 c0 -8 -97 -280
-121 -341 -20 -50 -30 -63 -63 -78 -21 -10 -40 -16 -42 -14 -2 2 16 61 40 132
25 71 42 133 39 138 -8 12 -23 -14 -78 -138 -27 -60 -52 -114 -57 -119 -15
-18 -8 131 9 185 13 40 33 69 76 112 32 32 68 62 80 68 12 5 40 21 62 34 38
24 55 30 55 21z m3320 -352 c319 -67 514 -221 664 -522 122 -244 160 -554 91
-757 -43 -130 -142 -302 -279 -485 -84 -113 -342 -375 -476 -484 -52 -42 -103
-83 -112 -91 -92 -75 -349 -242 -488 -317 -36 -19 -90 -49 -121 -66 -134 -72
-409 -185 -551 -226 -74 -21 -596 -134 -655 -141 -39 -5 -83 28 -115 85 -16
30 -39 64 -50 75 l-21 20 8 -20 c4 -11 20 -55 36 -97 l28 -78 -57 -1 c-77 -2
-150 -6 -254 -14 -87 -7 -87 -7 -115 22 -15 16 -38 42 -50 58 l-22 30 6 -47 6
-48 -37 0 c-45 0 -65 20 -142 142 -31 48 -57 88 -59 88 -1 0 15 -46 36 -102
22 -56 39 -106 39 -110 0 -12 -83 3 -110 20 -37 23 -56 50 -92 129 l-32 71
-16 -36 -16 -35 -39 53 c-47 64 -44 58 -118 193 -63 115 -102 204 -123 282
-48 172 -29 362 51 514 38 72 138 204 158 208 7 2 68 -32 135 -75 l124 -77 4
-70 c2 -38 8 -92 12 -120 4 -27 7 -72 5 -100 -3 -52 -29 -141 -42 -150 -7 -4
-41 116 -55 190 -5 28 -25 104 -37 143 -6 17 -17 32 -25 32 -14 0 -14 -6 2
-109 2 -13 6 -45 10 -70 10 -76 11 -82 35 -181 24 -101 27 -157 11 -186 -8
-15 -13 -10 -35 37 -13 30 -41 114 -61 188 -20 74 -45 153 -56 175 l-19 41 5
-45 c3 -25 14 -100 24 -168 22 -133 24 -172 12 -172 -6 0 -30 50 -37 80 -1 3
-6 16 -12 30 -5 14 -20 54 -33 90 -13 36 -26 69 -30 73 -13 15 -29 -76 -27
-152 4 -119 49 -195 160 -265 130 -82 250 -110 472 -110 198 -1 276 6 445 40
284 57 435 115 914 356 625 313 816 430 1181 722 230 184 263 239 360 591 78
286 83 315 80 415 -6 172 -74 266 -231 321 -98 33 -202 49 -332 50 -67 0 -126
-2 -130 -5 -5 -3 -26 -7 -48 -10 -118 -16 -206 -46 -223 -77 -8 -14 -11 -34
-8 -43 6 -14 10 -15 29 -5 13 7 36 23 51 36 35 29 44 24 42 -21 -1 -20 0 -36
2 -36 2 0 17 16 34 35 30 34 52 42 130 49 54 5 66 -6 52 -46 -6 -18 -25 -78
-42 -133 -41 -130 -43 -133 -75 -115 -24 12 -30 10 -82 -24 -31 -21 -57 -36
-59 -34 -2 2 7 54 20 116 24 123 21 131 -15 37 -40 -105 -60 -144 -81 -164
-21 -19 -27 -20 -82 -6 -22 6 -34 1 -65 -27 -32 -29 -73 -46 -233 -98 -107
-34 -198 -66 -204 -70 -5 -3 -26 -13 -45 -20 -56 -21 -228 -108 -268 -135 -26
-18 -38 -21 -43 -13 -4 7 -6 15 -4 18 3 5 6 37 20 185 3 33 8 70 10 83 10 43
-13 21 -33 -33 -23 -59 -41 -148 -47 -230 -2 -27 -4 -53 -4 -57 -2 -12 -104
-77 -113 -72 -5 3 -6 9 -4 13 3 3 7 47 11 96 3 50 8 101 10 115 12 83 16 190
6 190 -6 0 -13 -10 -16 -22 -6 -28 -26 -142 -32 -183 -2 -16 -10 -64 -18 -105
-8 -41 -16 -87 -19 -102 -8 -46 -49 -98 -78 -98 -8 0 -3 90 10 217 10 87 6
186 -9 231 -13 40 -30 41 -125 8 -163 -55 -386 -190 -490 -296 -83 -85 -84
-89 -24 -83 l49 4 -6 -38 c-14 -89 -4 -87 -141 -20 l-124 60 34 32 c92 87 467
346 713 492 169 101 335 184 688 342 365 165 517 216 702 237 28 3 52 8 54 10
2 2 67 3 145 2 103 -1 169 -7 246 -24z m-2915 -138 c17 -3 64 -7 105 -11 73
-5 94 -8 183 -20 23 -3 62 -8 87 -12 25 -3 54 -7 65 -9 11 -2 40 -7 65 -10 25
-3 48 -8 51 -10 3 -1 28 -6 55 -10 27 -3 52 -8 55 -10 4 -2 23 -6 43 -10 72
-11 369 -94 419 -117 l51 -23 -144 -83 c-473 -272 -581 -342 -743 -484 l-67
-59 -48 28 c-237 137 -551 392 -694 564 -54 65 -128 178 -128 195 0 16 95 56
170 71 14 3 43 10 65 14 37 9 344 5 410 -4z m2911 -103 c-3 -10 -12 -52 -21
-93 -26 -125 -87 -224 -124 -201 -10 6 -7 29 9 102 35 150 43 170 81 190 44
23 62 24 55 2z m139 -29 c39 -9 74 -20 78 -24 10 -9 -26 -142 -51 -183 -19
-33 -57 -44 -57 -17 -1 8 5 44 12 79 7 35 11 66 9 68 -7 7 -43 -51 -50 -81 -4
-16 -20 -41 -36 -57 -32 -33 -75 -40 -68 -11 51 182 73 250 82 247 6 -2 43
-11 81 -21z m165 -88 c7 -13 10 -42 7 -64 -4 -39 -4 -40 20 -31 13 5 26 9 27
9 1 0 4 -28 5 -62 1 -34 4 -65 7 -69 12 -20 -17 -15 -41 7 -22 20 -26 32 -23
59 2 19 0 35 -4 35 -4 0 -8 -3 -8 -7 0 -5 -9 -19 -20 -33 l-19 -25 -14 35
c-16 37 -15 60 9 132 16 50 32 54 54 14z m-45 -366 c47 -22 84 -43 82 -47 -3
-5 -13 -43 -22 -86 -10 -43 -21 -75 -25 -70 -4 4 -23 37 -43 73 -19 36 -49 89
-66 118 -17 29 -27 52 -22 52 5 0 48 -18 96 -40z m-1999 2 c8 -5 5 -49 -11
-162 -13 -86 -26 -180 -29 -210 -10 -89 -18 -123 -38 -167 -23 -50 -80 -103
-109 -103 -36 0 -118 31 -114 43 4 11 6 43 21 252 3 44 7 85 9 92 2 6 -3 14
-11 17 -16 6 -13 16 -49 -189 -15 -82 -28 -152 -30 -154 -2 -2 -16 0 -30 3
-29 7 -47 44 -41 84 3 15 7 56 11 92 3 36 9 90 13 120 l7 54 190 118 c105 65
192 118 195 118 3 0 10 -4 16 -8z m1060 -176 c96 -55 204 -168 251 -264 34
-67 37 -80 37 -165 l1 -92 -53 -18 c-85 -28 -297 -67 -406 -74 -275 -19 -538
5 -818 73 l-107 26 47 37 c277 219 532 363 817 461 130 45 175 49 231 16z
m-1511 -126 c-6 -20 -9 -35 -19 -102 -13 -85 -18 -113 -21 -116 -2 -2 -15 22
-30 54 -39 82 -25 131 50 172 27 15 27 15 20 -8z m-423 -873 c43 -18 78 -35
78 -39 0 -4 -10 -18 -22 -32 -13 -13 -37 -42 -55 -63 -17 -21 -40 -48 -51 -61
l-20 -22 -17 112 c-9 62 -19 121 -21 131 -4 21 -7 22 108 -26z m418 -138 c351
-97 442 -121 560 -143 69 -14 142 -32 164 -41 36 -15 37 -17 20 -29 -38 -25
-283 -125 -405 -164 -247 -81 -442 -113 -742 -126 -49 -2 -70 1 -74 10 -13 34
37 201 89 294 41 75 149 217 173 229 34 16 65 12 215 -30z"/>
<path d="M1860 954 c0 -25 55 -154 66 -154 11 0 9 12 -7 53 -12 28 -26 64 -31
80 -9 23 -28 38 -28 21z"/>
<path d="M1720 906 c0 -13 32 -77 37 -73 8 8 -17 77 -28 77 -5 0 -9 -2 -9 -4z"/>
<path d="M1540 894 c0 -8 40 -74 45 -74 1 0 -2 18 -7 40 -6 22 -16 40 -24 40
-8 0 -14 -3 -14 -6z"/>
<path d="M2270 2803 c-24 -65 -46 -180 -44 -233 0 -19 2 -53 3 -74 0 -22 4
-36 9 -32 4 4 7 11 8 14 0 4 6 41 13 82 17 102 19 116 26 185 3 33 8 72 11 88
7 43 -3 32 -26 -30z"/>
</g>
</svg>
